# xmcd
#
# Track frame offsets:
# 150
# 17922
# 48927
#
# Disc length: 988 seconds
#
# Revision: 0
# Processed by: cddbd v1.5.2PL0 Copyright (c) Steve Scherf et al.
# Submitted via: Audion 3.0.2 (http://www.panic.com/audion/)
#
DISCID=1c03da03
DTITLE=Science Dept. featuring Erire - Breathe
DYEAR=1900
DGENRE=
TTITLE0=Breathe (Original Mix edit)
TTITLE1=Breathe (Shaboom remix)
TTITLE2=Breathe (Flatline's Ambient Weekender)
EXTD=
EXTT0=
EXTT1=
EXTT2=
PLAYORDER=
